<?xml version="1.0" standalone="no"?>
<!DOCTYPE svg PUBLIC "-//W3C//DTD SVG 20010904//EN"
 "http://www.w3.org/TR/2001/REC-SVG-20010904/DTD/svg10.dtd">
<svg version="1.0" xmlns="http://www.w3.org/2000/svg"
 width="2409.000000pt" height="2580.000000pt" viewBox="0 0 2409.000000 2580.000000"
 preserveAspectRatio="xMidYMid meet">

<g transform="translate(0.000000,2580.000000) scale(0.100000,-0.100000)"
fill="#000000" stroke="none">
<path d="M16325 24655 c-71 -36 -272 -134 -445 -219 -807 -397 -1490 -834
-2410 -1541 -113 -87 -480 -364 -816 -615 -1087 -814 -1280 -976 -1889 -1592
-525 -530 -717 -742 -1091 -1198 -298 -363 -430 -538 -625 -825 l-96 -140 198
-115 c109 -63 195 -118 191 -121 -4 -3 -137 -16 -297 -28 -628 -49 -861 -86
-1446 -231 -932 -232 -1662 -503 -2286 -850 -746 -415 -1338 -856 -1899 -1415
-328 -326 -607 -670 -1114 -1370 -95 -132 -184 -252 -197 -266 -26 -28 -93
-132 -89 -137 7 -6 107 47 186 99 435 287 983 554 1495 729 321 109 738 227
992 280 375 78 1096 152 1653 169 746 22 1463 -43 2302 -209 332 -66 775 -167
938 -214 537 -155 1478 -531 2185 -873 355 -173 600 -287 932 -434 122 -54
361 -163 530 -243 442 -207 640 -290 1353 -566 1304 -505 1875 -712 2170 -785
30 -7 86 -22 123 -33 l69 -20 -33 34 c-18 18 -94 121 -168 228 -75 108 -219
314 -321 460 -273 392 -391 580 -490 781 -112 228 -149 317 -272 650 -215 582
-360 1042 -443 1402 -87 381 -282 1414 -270 1433 7 11 171 128 320 227 126 84
359 223 483 288 39 20 72 43 72 49 0 6 -7 36 -15 66 -30 111 -84 420 -104 595
-56 490 -56 763 4 1660 40 589 74 797 219 1340 64 240 231 842 261 944 l16 53
142 -6 c365 -17 517 -28 620 -42 436 -59 977 -180 1362 -304 105 -34 222 -72
261 -84 l72 -23 -32 41 c-17 23 -43 53 -56 67 -39 39 -185 229 -302 389 -240
330 -409 596 -573 900 -223 415 -309 561 -433 735 -159 223 -459 619 -531 701
-82 93 -246 244 -264 243 -7 0 -70 -29 -142 -64z"/>
<path d="M7020 12910 c-372 -18 -768 -55 -1075 -103 l-79 -12 -166 -247 c-366
-547 -636 -1088 -836 -1673 -145 -425 -224 -777 -279 -1250 -18 -162 -39 -524
-30 -533 6 -7 446 -11 2778 -27 l1127 -8 0 78 c0 156 40 357 150 748 58 210
82 273 172 446 67 130 125 223 176 286 90 110 228 256 334 352 150 136 181
160 383 300 327 226 385 260 775 457 226 114 289 137 504 186 92 21 171 41
174 44 6 6 -382 197 -627 308 -595 270 -1229 455 -1931 562 -485 74 -1088 108
-1550 86z"/>
<path d="M10800 6099 c-41 -11 -235 -73 -430 -139 -828 -276 -1236 -478 -2050
-1015 -662 -436 -1067 -760 -1441 -1156 -435 -459 -515 -554 -674 -794 -203
-305 -320 -538 -529 -1052 -69 -170 -141 -397 -207 -651 -34 -132 -69 -309
-69 -350 0 -10 583 -12 2905 -12 1814 0 2905 4 2905 10 0 5 -6 13 -12 17 -52
33 -333 361 -506 590 -345 457 -548 912 -621 1397 -50 328 -69 640 -51 861 36
464 152 860 437 1485 131 287 222 461 410 778 35 60 38 59 -67 31z"/>
</g>
</svg>
